HIERARCHY
ROOT Hips
{
	OFFSET 0.00000 0.00000 0.00000
	CHANNELS 6 Xposition Yposition Zposition Zrotation Yrotation Xrotation 
	JOINT LHipJoint
	{
		OFFSET 0 0 0
		CHANNELS 3 Zrotation Yrotation Xrotation
		JOINT LeftUpLeg
		{
			OFFSET 1.37590 -1.78394 0.89329
			CHANNELS 3 Zrotation Yrotation Xrotation
			JOINT LeftLeg
			{
				OFFSET 2.47928 -6.81178 0.00000
				CHANNELS 3 Zrotation Yrotation Xrotation
				JOINT LeftFoot
				{
					OFFSET 2.63345 -7.23535 0.00000
					CHANNELS 3 Zrotation Yrotation Xrotation
					JOINT LeftToeBase
					{
						OFFSET 0.23938 -0.65768 2.27012
						CHANNELS 3 Zrotation Yrotation Xrotation
						End Site
						{
							OFFSET 0.00000 -0.00000 1.18363
						}
					}
				}
			}
		}
	}
	JOINT RHipJoint
	{
		OFFSET 0 0 0
		CHANNELS 3 Zrotation Yrotation Xrotation
		JOINT RightUpLeg
		{
			OFFSET -1.33617 -1.78394 0.89329
			CHANNELS 3 Zrotation Yrotation Xrotation
			JOINT RightLeg
			{
				OFFSET -2.56922 -7.05888 0.00000
				CHANNELS 3 Zrotation Yrotation Xrotation
				JOINT RightFoot
				{
					OFFSET -2.56568 -7.04915 0.00000
					CHANNELS 3 Zrotation Yrotation Xrotation
					JOINT RightToeBase
					{
						OFFSET -0.27533 -0.75646 2.18105
						CHANNELS 3 Zrotation Yrotation Xrotation
						End Site
						{
							OFFSET -0.00000 -0.00000 1.15233
						}
					}
				}
			}
		}
	}
	JOINT LowerBack
	{
		OFFSET 0 0 0
		CHANNELS 3 Zrotation Yrotation Xrotation
		JOINT Spine
		{
			OFFSET 0.06190 2.15152 -0.00935
			CHANNELS 3 Zrotation Yrotation Xrotation
			JOINT Spine1
			{
				OFFSET 0.06334 2.15332 0.00872
				CHANNELS 3 Zrotation Yrotation Xrotation
				JOINT Neck
				{
					OFFSET 0 0 0
					CHANNELS 3 Zrotation Yrotation Xrotation
					JOINT Neck1
					{
						OFFSET -0.04202 1.66908 0.23524
						CHANNELS 3 Zrotation Yrotation Xrotation
						JOINT Head
						{
							OFFSET 0.07510 1.69357 -0.24440
							CHANNELS 3 Zrotation Yrotation Xrotation
							End Site
							{
								OFFSET 0.02556 1.71719 -0.11000
							}
						}
					}
				}
				JOINT LeftShoulder
				{
					OFFSET 0 0 0
					CHANNELS 3 Zrotation Yrotation Xrotation
					JOINT LeftArm
					{
						OFFSET 3.67168 1.26306 -0.41342
						CHANNELS 3 Zrotation Yrotation Xrotation
						JOINT LeftForeArm
						{
							OFFSET 4.68510 -0.00000 -0.00000
							CHANNELS 3 Zrotation Yrotation Xrotation
							JOINT LeftHand
							{
								OFFSET 3.39626 -0.00000 -0.00000
								CHANNELS 3 Zrotation Yrotation Xrotation
								JOINT LeftFingerBase
								{
									OFFSET 0 0 0
									CHANNELS 3 Zrotation Yrotation Xrotation
									JOINT LeftHandIndex1
									{
										OFFSET 0.48608 -0.00000 -0.00000
										CHANNELS 3 Zrotation Yrotation Xrotation
										End Site
										{
											OFFSET 0.39189 -0.00000 -0.00000
										}
									}
								}
								JOINT LThumb
								{
									OFFSET 0 0 0
									CHANNELS 3 Zrotation Yrotation Xrotation
									End Site
									{
										OFFSET 0.39787 -0.00000 0.39787
									}
								}
							}
						}
					}
				}
				JOINT RightShoulder
				{
					OFFSET 0 0 0
					CHANNELS 3 Zrotation Yrotation Xrotation
					JOINT RightArm
					{
						OFFSET -3.04136 1.42992 -0.76390
						CHANNELS 3 Zrotation Yrotation Xrotation
						JOINT RightForeArm
						{
							OFFSET -5.55576 -0.00000 -0.00000
							CHANNELS 3 Zrotation Yrotation Xrotation
							JOINT RightHand
							{
								OFFSET -3.32774 -0.00000 -0.00000
								CHANNELS 3 Zrotation Yrotation Xrotation
								JOINT RightFingerBase
								{
									OFFSET 0 0 0
									CHANNELS 3 Zrotation Yrotation Xrotation
									JOINT RightHandIndex1
									{
										OFFSET -0.50763 -0.00000 -0.00000
										CHANNELS 3 Zrotation Yrotation Xrotation
										End Site
										{
											OFFSET -0.40926 -0.00000 -0.00000
										}
									}
								}
								JOINT RThumb
								{
									OFFSET 0 0 0
									CHANNELS 3 Zrotation Yrotation Xrotation
									End Site
									{
										OFFSET -0.41551 -0.00000 0.41551
									}
								}
							}
						}
					}
				}
			}
		}
	}
}
MOTION
Frames: 6
Frame Time: .0083333
41.8018 17.8172 6.1749 0 0 0 0 0 0 -21 0 0 0 0 0 0 0 0 0 0 0 0 0 0 21 0 0 0 0 0 0 0 0 0 0 0 0 0 0 0 0 0 0 0 0 0 0 -16 0 0 21 0 0 11 0 0 0 -8 0 0 0 0 0 0 0 0 0 0 0 0 0 0 0 0 0 0 0 0 8 0 0 0 0 0 0 0 0 0 0 0 0 0 0 0 0 0
41.8018 17.8172 6.1749 -91.7061 -85.0493 98.8437 0.0000 0.0000 0.0000 -12.3130 -6.6678 -5.1109 0.3039 3.5446 9.7988 0.1754 3.0725 -9.6613 0.0177 0.8598 2.3631 0.0000 0.0000 0.0000 22.0497 5.6367 -8.4039 -0.6207 -5.0419 14.0281 0.3432 -12.5540 -12.2528 -0.2653 -3.3137 9.1533 3.5300 -1.0255 -4.7156 3.9971 -1.6794 -1.7347 2.0408 -0.8838 0.8802 -7.8178 -4.2893 -19.8870 5.5148 -4.9637 19.5700 2.5058 -2.2898 9.8341 0.0000 -0.0000 0.0000 -93.1807 -0.5021 -16.5446 7.0282 -11.9657 -0.7375 -0.0000 -0.0000 55.1179 14.3282 22.4221 5.5645 -7.1250 0.0000 -0.0000 -14.9770 52.4273 -2.7888 0.0000 -0.0000 0.0000 83.0613 -0.7567 -1.5096 -8.4290 14.2459 -1.0552 0.0000 0.0000 23.2280 -16.8190 -30.7365 8.7823 7.1250 -0.0000 -0.0000 17.2666 -60.9985 -6.8467
41.8002 17.8172 6.1708 -91.2248 -85.0744 98.3587 0.0000 0.0000 0.0000 -12.3279 -6.6881 -5.1001 0.3044 3.5470 9.8056 0.1800 2.9857 -9.6901 0.0172 0.8460 2.3251 0.0000 0.0000 0.0000 22.0385 5.5888 -8.4363 -0.6257 -5.0618 14.0848 0.3377 -12.5425 -12.3506 -0.2737 -3.3651 9.2970 3.5010 -1.0407 -4.8158 4.0112 -1.7091 -1.6329 2.0665 -0.8962 1.0426 -7.8410 -4.2705 -19.8152 5.5445 -4.9371 19.4636 2.5241 -2.2761 9.7828 0.0000 -0.0000 0.0000 -93.1996 -0.4988 -16.6778 7.0510 -12.0032 -0.7422 -0.0000 -0.0000 54.9782 14.3634 22.3636 5.5649 -7.1250 0.0000 -0.0000 -14.9163 52.3763 -2.7582 0.0000 -0.0000 0.0000 83.0069 -0.9637 -1.7192 -8.5232 14.3974 -1.0785 0.0000 0.0000 22.8534 -16.9051 -30.9112 8.8738 7.1250 -0.0000 -0.0000 17.3052 -61.1860 -6.9397
41.7987 17.8172 6.1655 -90.6118 -85.0759 97.7563 0.0000 0.0000 0.0000 -12.2926 -6.6883 -5.1194 0.3043 3.5468 9.8049 0.1796 2.9356 -9.6448 0.0174 0.8524 2.3427 0.0000 0.0000 0.0000 22.0608 5.5851 -8.4495 -0.6260 -5.0629 14.0879 0.3443 -12.6027 -12.3365 -0.2718 -3.3538 9.2653 3.4380 -1.1041 -4.9476 4.0849 -1.8006 -1.6840 2.1705 -0.9433 1.0690 -7.9702 -4.1603 -19.0674 5.5982 -4.8107 19.1739 2.5881 -2.2341 9.5403 0.0000 -0.0000 0.0000 -93.3213 -0.1211 -16.7116 7.1205 -12.1174 -0.7567 -0.0000 -0.0000 54.5804 14.3207 22.3756 5.5506 -7.1250 0.0000 -0.0000 -14.9634 52.3806 -2.7688 0.0000 -0.0000 0.0000 82.8627 -1.5022 -1.5092 -8.6620 14.6202 -1.1133 0.0000 0.0000 22.2117 -16.8425 -31.3363 8.9470 7.1250 -0.0000 -0.0000 17.7037 -61.5750 -7.2688
41.7975 17.8172 6.1604 -89.7817 -85.0524 96.9399 0.0000 0.0000 0.0000 -12.2303 -6.7384 -5.1343 0.3056 3.5541 9.8253 0.1801 2.9047 -9.6327 0.0197 0.9058 2.4895 0.0000 0.0000 0.0000 22.1098 5.5580 -8.4815 -0.6295 -5.0767 14.1274 0.3430 -12.6224 -12.4089 -0.2820 -3.4157 9.4382 3.5179 -1.1627 -4.9435 4.0881 -1.8809 -1.7342 2.1253 -0.9847 1.0136 -8.0288 -4.0721 -18.6727 5.6736 -4.7179 19.0346 2.6403 -2.1941 9.4163 0.0000 -0.0000 0.0000 -93.3045 0.2045 -16.3847 7.1994 -12.2470 -0.7734 -0.0000 -0.0000 53.8953 14.2755 22.3530 5.5271 -7.1250 0.0000 -0.0000 -14.9974 52.3506 -2.7642 0.0000 -0.0000 0.0000 82.8570 -1.9279 -1.6119 -8.7558 14.7704 -1.1371 0.0000 0.0000 21.9064 -16.9013 -31.1636 8.9358 7.1250 -0.0000 -0.0000 17.5042 -61.4255 -7.1219
41.7974 17.8176 6.1557 -89.1729 -85.0891 96.3452 0.0000 0.0000 0.0000 -12.2570 -6.7481 -5.1709 0.3059 3.5559 9.8306 0.1806 2.8588 -9.6078 0.0154 0.8003 2.1994 0.0000 0.0000 0.0000 22.0818 5.5366 -8.5279 -0.6331 -5.0911 14.1685 0.3439 -12.6413 -12.4323 -0.2687 -3.3346 9.2119 3.5201 -1.1771 -4.9487 4.0643 -1.9004 -1.7025 2.0978 -0.9934 1.0485 -7.9756 -4.0324 -18.5388 5.6468 -4.6761 18.9044 2.6284 -2.1750 9.3414 0.0000 -0.0000 0.0000 -93.2739 0.2209 -16.5290 7.2134 -12.2699 -0.7764 -0.0000 -0.0000 53.8178 14.2282 22.2924 5.4941 -7.1250 0.0000 -0.0000 -15.0165 52.2832 -2.7427 0.0000 -0.0000 0.0000 82.8806 -2.2176 -1.6453 -8.9012 15.0029 -1.1744 0.0000 0.0000 21.3309 -16.8578 -31.1624 8.9115 7.1250 -0.0000 -0.0000 17.5508 -61.4135 -7.1366
